<?xml version="1.0" encoding="utf-8"?>
<svg version="1.1" id="ACFLogo" xmlns="http://www.w3.org/2000/svg" xmlns:xlink="http://www.w3.org/1999/xlink" x="0px" y="0px"
	 viewBox="0 0 215.7 60" style="enable-background:new 0 0 215.7 60;" xml:space="preserve">
<style type="text/css">
	path {fill:#333333;}
	.logo-color{fill:#333333;}
</style>
<g id="XMLID_272_">
	<g id="XMLID_309_">
		<path id="XMLID_314_" class="logo-color" d="M70.3,30c0-7.6-3.3-14.6-8.8-19.9c1.8,4.7-3.7,15.6-13.7,27.3c-0.2,0.2-0.5,0.2-0.7,0.1
			c-0.2-0.2-0.2-0.5-0.1-0.7C55.7,26,60,16.4,57.3,14c-0.4-0.4-1.1-0.6-1.9-0.6c-5.3,0-16,7.7-26.3,18.6c-0.4,0.4-0.7,0.8-1.1,1.2
			c2.3,1.8,4.8,3.6,7.3,5.3c9.3,6.3,18.8,10.8,25.3,12.1h0C66.6,45.2,70.3,38,70.3,30z"/>
		<path id="XMLID_313_" class="logo-color" d="M36.9,19.7L36.9,19.7c-8.4-4.7-16.2-7.6-20.5-7.6c-1.7,0-2.9,0.4-3.4,1.2
			c-0.4,0.5-0.5,1.3-0.3,2.2c0.7,3.6,5.6,9.4,13.1,15.7c1.2-1.5,2.5-2.9,3.8-4.3C31.9,24.4,34.4,21.9,36.9,19.7z"/>
		<path id="XMLID_312_" class="logo-color" d="M12,9c5.7,0,15.5,3.8,25.7,10c8.1-7.1,15.5-11.3,19.9-11.3c0.4,0,0.8,0,1.2,0.1
			C52.6,3,44.3,0,35.2,0c-10,0-19,3.6-25.4,9.2l0.2,0C10.6,9.1,11.3,9,12,9z"/>
		<path id="XMLID_311_" class="logo-color" d="M23.3,33.9C13.9,26.5,7.6,19,6.7,14.3c-0.1-0.6-0.1-1.1-0.1-1.6l0-0.1l0.1-0.1c0,0,0,0,0,0
			C2.5,17.4,0,23.4,0,30c0,10.2,6,19.3,15.2,24.7l0-0.1C15.7,49.4,17.2,41.6,23.3,33.9z"/>
		<path id="XMLID_310_" class="logo-color" d="M25.6,35.6L25.6,35.6l-0.1,0.1c-5.5,6.5-8.3,12.7-8.9,19.6l0,0.2C22,58.3,28.4,60,35.2,60
			c9.5,0,18.1-3.2,24.4-8.4c-6.7-0.3-18.1-5.2-29.3-12.7C28.7,37.9,27.1,36.8,25.6,35.6z"/>
	</g>
	<rect id="XMLID_308_" x="81.3" y="3.5" class="logo-color" width="1.4" height="54.2"/>
	<g id="XMLID_273_">
		<g id="XMLID_301_">
			<path id="XMLID_305_" class="logo-color" d="M127,11.2c-1.7-1.3-3.7-2-6.1-2h-19.1c-2.4,0-4.4,0.7-6.1,2c-1.7,1.3-2.5,3-2.5,4.9v16.7
				h7.3v-7.7h21.7v7.7h7.3V16.1C129.5,14.2,128.7,12.6,127,11.2z M100.6,20v-2.8c0-0.7,0.3-1.4,1-1.9c0.6-0.5,1.5-0.8,2.4-0.8h14.8
				c1,0,1.8,0.3,2.4,0.8c0.7,0.6,1,1.2,1,2V20H100.6z"/>
			<path id="XMLID_303_" class="logo-color" d="M164.8,9.2c2.4,0,4.4,0.7,6.1,2c1.7,1.3,2.5,3,2.5,4.9v1.5h-7.3v-0.4c0-0.8-0.3-1.4-1-2
				c-0.7-0.6-1.5-0.8-2.4-0.8h-16c-0.9,0-1.7,0.3-2.4,0.8c-0.7,0.5-1,1.2-1,1.9v7.6c0,0.8,0.3,1.4,1,2c0.7,0.5,1.5,0.8,2.4,0.8h16
				c1,0,1.8-0.3,2.4-0.8c0.7-0.6,1-1.2,1-1.9v-0.4h7.3v1.5c0,1.9-0.8,3.5-2.5,4.9c-1.7,1.3-3.7,2-6.1,2h-20.2c-2.4,0-4.4-0.7-6.1-2
				c-1.7-1.3-2.5-3-2.5-4.9v-9.8c0-1.9,0.8-3.5,2.5-4.9c1.7-1.3,3.7-2,6-2H164.8z"/>
			<path id="XMLID_302_" class="logo-color" d="M188.5,15.2c0.6-0.5,1.4-0.8,2.4-0.8h11.6h13.2v-1.8h0c-0.1-1.9-1.8-3.4-3.9-3.5l0,0h-1.6
				h-21.3c-2.3,0-4.3,0.7-5.9,2c-1.6,1.3-2.4,3-2.4,4.9v16.8h7.1v-7.7h27.9V20h-27.9v-2.9C187.6,16.4,187.9,15.7,188.5,15.2z"/>
		</g>
		<g id="XMLID_274_">
			<path id="XMLID_299_" class="logo-color" d="M96.2,42.1h-2.9v-0.9h6.8v0.9h-2.9v9.7h-1V42.1z"/>
			<path id="XMLID_297_" class="logo-color" d="M102.9,41.2h5.2v0.9h-4.3v3.3h4.3v0.9h-4.3v4.5h4.3v0.9h-5.2V41.2z"/>
			<path id="XMLID_295_" class="logo-color" d="M116.9,41.8c-2.8,0-4.6,2-4.6,4.7c0,2.8,1.9,4.7,4.5,4.7c1.2,0,2.4-0.4,3.4-1.2l0,1.1
				c-1,0.6-2.3,1-3.4,1c-3.2,0-5.6-2.2-5.6-5.6c0-3.2,2.4-5.5,5.6-5.5c1.3,0,2.5,0.4,3.4,1.1l0,1.1
				C119.2,42.2,118.2,41.8,116.9,41.8z"/>
			<path id="XMLID_293_" class="logo-color" d="M123.6,41.2h1v4.3h5.7v-4.3h1v10.6h-1v-5.4h-5.7v5.4h-1V41.2z"/>
			<path id="XMLID_291_" class="logo-color" d="M135.1,40.7l7.4,8.8v-8.4h1V52l-7.4-8.8v8.5h-1V40.7z"/>
			<path id="XMLID_288_" class="logo-color" d="M156.6,50.4c-1.1,1-2.5,1.6-4,1.6c-1.5,0-2.9-0.6-4-1.6c-1.1-1-1.7-2.4-1.7-3.9
				c0-1.5,0.6-2.9,1.7-3.9c1.1-1,2.4-1.6,4-1.6c1.5,0,2.9,0.5,4,1.6c1.1,1,1.7,2.5,1.7,3.9C158.2,47.9,157.6,49.3,156.6,50.4z
				 M157.2,46.5c0-2.6-2.1-4.7-4.6-4.7c-2.6,0-4.6,2.1-4.6,4.7c0,2.6,2,4.7,4.6,4.7C155.1,51.1,157.2,49.1,157.2,46.5z"/>
			<path id="XMLID_286_" class="logo-color" d="M161.6,41.2h1v9.7h3.6v0.9h-4.6V41.2z"/>
			<path id="XMLID_283_" class="logo-color" d="M177.5,50.4c-1.1,1-2.5,1.6-4,1.6c-1.5,0-2.9-0.6-4-1.6c-1.1-1-1.7-2.4-1.7-3.9
				c0-1.5,0.6-2.9,1.7-3.9c1.1-1,2.4-1.6,4-1.6c1.6,0,2.9,0.5,4,1.6c1.1,1,1.7,2.5,1.7,3.9C179.2,47.9,178.6,49.3,177.5,50.4z
				 M178.2,46.5c0-2.6-2.1-4.7-4.6-4.7c-2.6,0-4.6,2.1-4.6,4.7c0,2.6,2,4.7,4.6,4.7C176.1,51.1,178.2,49.1,178.2,46.5z"/>
			<path id="XMLID_281_" class="logo-color" d="M187.5,41.8c-2.6,0-4.4,2-4.4,4.8c0,2.6,1.9,4.5,4.4,4.5c2.3,0,4-1.6,4-3.8h-3.6v-0.8h4.7
				v0.1c0,3.3-2,5.3-5.2,5.3c-3.2,0-5.4-2.2-5.4-5.5c0-3.2,2.2-5.5,5.3-5.5c2.1,0,3.7,0.8,4.5,2.3l-0.7,0.6
				C190.4,42.5,189.1,41.8,187.5,41.8z"/>
			<path id="XMLID_279_" class="logo-color" d="M195.9,41.2h1v10.6h-1V41.2z"/>
			<path id="XMLID_277_" class="logo-color" d="M200.8,41.2h5.2v0.9h-4.3v3.3h4.3v0.9h-4.3v4.5h4.3v0.9h-5.2V41.2z"/>
			<path id="XMLID_275_" class="logo-color" d="M209.6,49.5c0.3,1,1.1,1.6,2.2,1.6c1.3,0,2.1-0.8,2.1-2.2c0-1.3-0.8-1.8-2-2.4
				c-1.7-0.9-2.6-1.6-2.6-3c0-1.5,1.1-2.5,2.7-2.5c1.1,0,1.8,0.5,2.3,1.3l-0.7,0.4c-0.3-0.6-0.9-0.9-1.7-0.9c-1,0-1.7,0.7-1.7,1.7
				c0,1.3,1,1.6,2.3,2.3c1.6,0.8,2.3,1.5,2.3,3.1c0,1.9-1.2,3.1-3.1,3.1c-1.4,0-2.4-0.7-2.9-2.1L209.6,49.5z"/>
		</g>
	</g>
</g>
</svg>
